<svg height="68" viewBox="0 0 224 68" width="224" xmlns="http://www.w3.org/2000/svg"><g fill="#0033a0" fill-rule="evenodd"><path d="m66.303 20.5363421.4926316.4902632c-.4926316 1.3713158-2.9463158 1.0776315-2.5531579 3.0410526-3.24 1.5702632-1.0752632-3.5313158-4.32-2.5531579-.0971053 1.4731579-1.2742105 1.5678947-2.5507895 1.1771053.5897369-1.7668421-1.7692105-1.276579-1.8686842-2.3542106 3.6331579-2.7497368 7.0673684 1.1771053 10.8.1989474zm-12.4673684 6.3805263 1.3736842-2.16-1.3736842-2.0652631 11.9818421 3.0481579zm10.4068421 3.0434211c-1.4707895.5873684-1.3736842-1.1794737-1.6697369-1.8663158-.6868421-1.5702632 1.0847369-1.0847369 1.8663158-1.1771053-.0971052.9781579.6868421 2.2547369-.1965789 3.0434211zm-6.1839474.4878947c-1.0823684 0-1.1771052-.883421-1.3736842-1.6697368-.5897368-1.4707895 1.1747368-1.4707895 2.0605263-1.3736842.4926316.9852631.2960527 2.4560526-.6868421 3.043421zm2.8444737-17.9644737c-6.2810526 4.5189474-9.8171053 10.9942106-10.6010526 18.1634211 6.0868421 2.7426316 15.0205263 3.0457895 21.0078947-.196579-1.0776316-6.9726315-4.2181579-13.4478947-10.4068421-17.9668421z"/><path d="m116.405763 66.6734564h106.571842v-65.84786014h-106.571842zm-13.177895-8.2006653c-2.57921-1.0085738-5.0471048-3.7245188-5.6439469-6.4404639-2.1813158 1.6089153-.8857895 6.0274289-4.2607895 6.5341172-4.0618421.7060016-8.2255263 0-11.3968421-2.2116582-4.4621053-3.8181721-4.86-9.9488598-3.8652632-15.4768046 1.2860526-9.6510904 11.7971053-10.8517734 18.3386842-14.6747483 2.2760527-1.6113166 1.7810527-4.7258885.9923684-6.7310292-.9923684-2.1996514-3.78-3.5372123-6.4563157-3.2370415-3.8676316.2065175-7.621579 1.0205806-10.0018421 4.4425273.0971052-2.5166317 1.5844736-5.5327475 2.3802631-8.2438899 6.4444737-3.01371443 17.3439478-4.22160159 21.2139478 3.614056 0 0 1.023157 2.4710058 1.158157 4.8267459.135 2.3557402.028422 29.6496674.028422 29.6496674.698684 1.5080579 2.57921 1.81063 4.06421 1.2078871.551842-.1825038.400263-.2017147.691579-.2017147-1.977632 2.4085702-.824211 10.0569213-7.242632 6.9423494zm-26.8081575-22.123786h-25.4273684c-.9805263 2.2861006-.7460526 5.2589918.2936842 8.1622434 1.1771053 2.485414 2.7473684 5.3238287 5.8902632 6.6685937 4.4147368 1.8922765 11.6005263 1.9451066 14.8192105-1.4912483l1.8663158-2.394162c-.4902632 2.591074-1.7644737 5.9745988-2.5507895 8.8586395-5.8878947 3.3883276-14.7244737 4.0799211-20.3186842-.196912-7.858421-6.4716816-9.8763158-16.266854-8.2492105-26.5735174 1.5726316-6.4764844 3.7302631-13.3395887 10.1155263-17.1241417 5.2318421-2.80959834 12.96-2.88404069 17.4718421 1.5969085 5.5965789 6.0682521 6.8778947 14.1272368 6.0892105 22.4935963zm-48.808421 21.9148672c2.1363158-1.3471664 3.2589473-2.9392722 3.8439473-4.9179978l.1136843-30.9992352c-.2273685-2.5382439-1.7786843-4.3248603-3.8747369-5.1197125-2.5413158-.4970828-5.8713158-.4250418-7.5315789 2.25008-2.0486842 2.6727205-2.3992106 6.1498986-2.6952632 9.6102672l.0094737 24.4891316c.1278947 1.4240101 1.7407895 3.9958732 2.9107895 4.6874667l-14.27921056-.0768438c1.76210526-1.0878188 3.51710526-3.1313814 3.62842105-4.7523035.02131579-9.6967163.13263158-20.4572379.13263158-30.6846562-.02842105-1.3831868-.87157895-3.6836956-2.17421053-3.8806076h-.88105263c3.22342109-2.3773524 7.03184209-4.4521328 10.54421049-6.7310292-.0213158 1.7433918-.0213158 3.4483617.196579 5.0500729 1.6626316-3.2682592 4.4218421-5.8977551 8.1994737-6.4380625 4.1589473-.4106336 6.3828947.0744423 9.3718421 2.5742645 2.638421 2.7663737 3.6923684 5.5903803 3.718421 10.5227863v29.7289124c.5873684 1.5849016 2.0084211 4.2912412 3.8628948 4.6874667zm-27.61105266 9.235654h223.93781916v-67.49759862h-223.93781916z"/><path d="m85.4933684 47.2552105c.7934211 2.0842106 2.5744737 3.2684211 4.4621053 4.0642106 2.6763158.5968421 5.5515789.1018421 7.6286842-1.4873685v-19.0326315c-2.97 2.1860526-6.4397368 3.268421-9.2155263 5.9471052-3.375 2.5792105-3.4673684 7.036579-2.8752632 10.5086842"/><path d="m127.300263 21.8200263c-1.31921 0-1.579737-.2676316-1.579737-1.6602631v-7.9792106h.037895l6.108158 10.0823685h1.764474v-9.7792106c0-1.3926316.241579-1.6626316 1.577368-1.6626316v-.4452631h-4.327105v.4452631c1.302631 0 1.579737.27 1.579737 1.6626316v7.4794737h-.037895l-5.809737-9.5873684h-3.640263v.4452631c1.300263 0 1.577368.27 1.577368 1.6626316v7.6760527c0 1.3926315-.277105 1.6602631-1.577368 1.6602631v.4428948h4.327105z"/><path d="m141.893526 12.3948947 2.060527 5.3881579h-4.177895zm-1.913684 9.4239474c-.982895 0-1.392631-.1586842-1.392631-.7128947 0-.2321053.075789-.466579.168157-.6773685l.703421-1.8213157h4.810264l.741315 1.9278947c.094737.2107895.149211.4452632.149211.6607895 0 .5518421-.667895.6228947-1.392632.6228947v.4476316h5.291053v-.4476316c-1.297895 0-1.726579-.3197368-2.245263-1.6436842l-3.787105-9.8005263h-1.522895l-3.730263 9.5707895c-.577895 1.4802631-1.042106 1.873421-2.323421 1.873421v.4476316h4.530789z"/><path d="m151.323395 11.1967105h.724737v8.9621053c0 1.3926316-.279474 1.6602631-1.577369 1.6602631v.4452632h5.198684v-.4452632c-1.300263 0-1.579736-.2676315-1.579736-1.6602631v-8.9621053h.705789c1.949211 0 2.375526.6252632 2.562632 1.9468421h.54l-.094737-2.7686842h-9.45l-.111316 2.7686842h.537632c.206052-1.3026315.594473-1.9468421 2.543684-1.9468421"/><path d="m165.452921 21.8200263c-1.300263 0-1.579737-.2676316-1.579737-1.6602631v-7.6760527c0-1.3926316.279474-1.6626316 1.579737-1.6626316v-.4452631h-5.198684v.4452631c1.316842 0 1.577368.27 1.577368 1.6626316v7.6760527c0 1.3926315-.260526 1.6602631-1.577368 1.6602631v.4428948h5.198684z"/><path d="m172.525737 11.0557895c2.467895 0 2.877631 2.4821052 2.877631 5.2673684 0 2.7994737-.409736 5.2626316-2.877631 5.2626316-2.489211 0-2.877632-2.4631579-2.877632-5.2626316 0-2.7852632.388421-5.2673684 2.877632-5.2673684m0 11.3897368c3.881842 0 5.068421-2.3210526 5.068421-6.1223684 0-3.8060526-1.186579-6.1247368-5.068421-6.1247368-3.860526 0-5.068421 2.3186842-5.068421 6.1247368 0 3.8013158 1.207895 6.1223684 5.068421 6.1223684"/><path d="m183.833763 21.8200263c-1.31921 0-1.579737-.2676316-1.579737-1.6602631v-7.9792106h.037895l6.108158 10.0823685h1.764474v-9.7792106c0-1.3926316.241579-1.6626316 1.577368-1.6626316v-.4452631h-4.327105v.4452631c1.302631 0 1.579737.27 1.579737 1.6626316v7.4794737h-.037895l-5.809737-9.5873684h-3.640263v.4452631c1.300263 0 1.577368.27 1.577368 1.6626316v7.6760527c0 1.3926315-.277105 1.6602631-1.577368 1.6602631v.4428948h4.327105z"/><path d="m198.240868 12.3948947 2.060527 5.3881579h-4.177895zm-1.913684 9.4239474c-.982895 0-1.392631-.1586842-1.392631-.7128947 0-.2321053.075789-.466579.168158-.6773685l.705789-1.8213157h4.807895l.743684 1.9278947c.092368.2107895.146842.4452632.146842.6607895 0 .5518421-.665526.6228947-1.390263.6228947v.4476316h5.291053v-.4476316c-1.300264 0-1.726579-.3197368-2.247632-1.6436842l-3.787105-9.8005263h-1.522895l-3.732632 9.5707895c-.575526 1.4802631-1.037368 1.873421-2.321052 1.873421v.4476316h4.530789z"/><path d="m215.616553 19.4447368h-.537632c-.315 1.3926316-.836053 2.0013158-2.321053 2.0013158h-1.373684c-1.077631 0-1.243421-.27-1.243421-1.2860526v-7.6760526c0-1.3926316.277105-1.6626316 1.577369-1.6626316v-.4452632h-5.198685v.4452632c1.300264 0 1.577369.27 1.577369 1.6626316v7.6760526c0 1.3926316-.277105 1.6602632-1.577369 1.6602632v.4428947h8.98579z"/><path d="m131.479816 38.1699474h-.504474c-.052105 1.0539473-.537631 1.6555263-2.032105 1.6555263h-1.601053c-.904737 0-1.042105-.0852632-1.042105-1.2031579v-3.4602632h2.276053c1.132105 0 1.305.3528948 1.305 1.3571053h.468947v-3.4602632h-.468947c0 1.1036842-.172895 1.3357895-1.305 1.3357895h-2.276053v-2.9581579c0-.9355263.189474-1.2031579 1.042105-1.2031579h1.113158c1.946842 0 2.171842.7531579 2.242895 1.6555263h.502105l-.101842-2.4252631h-8.187632v.4168421c1.217369 0 1.475527.2510526 1.475527 1.5560526v7.1857895c0 1.3026316-.258158 1.5560526-1.475527 1.5560526v.4168421h8.464737z"/><path d="m137.718711 39.8259474c-1.061053 0-1.113158-.3671053-1.113158-1.2031579v-7.1857895c0-1.035.191842-1.2055263 1.113158-1.2055263 3.268421 0 3.633157 1.6886842 3.633157 4.7628947 0 3.3442105-.64421 4.831579-3.633157 4.831579m0-10.3618421h-4.502369v.4192105c1.233947 0 1.477895.2486842 1.477895 1.5536842v7.1857895c0 1.3026316-.243948 1.5536842-1.477895 1.5536842v.4168421h4.502369c3.353684 0 5.68421-.7673684 5.68421-5.5989474 0-4.663421-2.382632-5.5302631-5.68421-5.5302631"/><path d="m154.091842 37.0181842v-5.58c0-1.305.260526-1.5560526 1.477895-1.5560526v-.4168421h-4.225263v.4168421c1.217368 0 1.477894.2510526 1.477894 1.5560526v5.58c0 2.0889474-.625263 2.9747369-2.692894 2.9747369-2.171842 0-2.486842-1.3026316-2.486842-2.9747369v-5.58c0-1.305.260526-1.5560526 1.477894-1.5560526v-.4168421h-4.867105v.4168421c1.217368 0 1.477895.2510526 1.477895 1.5560526v5.58c0 2.4394737 1.148684 3.7444737 4.170789 3.7444737 3.583421 0 4.189737-1.8544737 4.189737-3.7444737"/><path d="m161.548816 40.7626579c1.790526 0 2.745-.3836842 3.337105-.6371053v-1.1510526c-.54.3528947-1.390263.8502632-3.041053.8502632-2.415789 0-3.372631-2.3707895-3.372631-5.011579 0-2.0913158.416842-4.7131579 2.972368-4.7131579 1.878158 0 2.832632 1.636579 2.901316 2.4892105h.504474l-.104211-2.7923684c-.798158-.2463158-1.927895-.4997368-3.476842-.4997368-3.874737 0-4.848158 2.4726316-4.848158 5.5160526 0 3.7586842 1.357105 5.9494737 5.127632 5.9494737"/><path d="m171.682816 31.3538684 1.930263 5.0471053h-3.912632zm-1.790527 8.8247369c-.921315 0-1.302631-.151579-1.302631-.6702632 0-.2155263.068684-.433421.153947-.6347368l.66079-1.7028948h4.502368l.696316 1.8047369c.085263.1989473.137368.4168421.137368.6181579 0 .5163158-.625263.585-1.302631.585v.4144736h4.952368v-.4144736c-1.215 0-1.615263-.3007895-2.103158-1.5394737l-3.545526-9.1752632h-1.425789l-3.491053 8.9573684c-.54 1.3878948-.973421 1.7573685-2.174211 1.7573685v.4144736h4.241842z"/><path d="m183.588395 30.2343158c1.826052 0 2.223947.585 2.39921 1.8213158h.504474l-.087632-2.5910527h-8.848421l-.101842 2.5910527h.504474c.189474-1.2221053.55421-1.8213158 2.377895-1.8213158h.679736v8.3889474c0 1.3026315-.260526 1.5536842-1.477894 1.5536842v.4192105h4.867105v-.4192105c-1.217368 0-1.477895-.2510527-1.477895-1.5536842v-8.3889474z"/><path d="m188.002658 40.1776579v.4192105h4.867105v-.4192105c-1.217368 0-1.475526-.2510526-1.475526-1.5536842v-7.1857895c0-1.305.258158-1.558421 1.475526-1.558421v-.4144737h-4.867105v.4144737c1.233947 0 1.477895.253421 1.477895 1.558421v7.1857895c0 1.3026316-.243948 1.5536842-1.477895 1.5536842"/><path d="m196.449395 35.0289474c0-2.6076316.367105-4.9310527 2.695263-4.9310527 2.311579 0 2.695263 2.3234211 2.695263 4.9310527 0 2.6242105-.383684 4.9310526-2.695263 4.9310526-2.328158 0-2.695263-2.3068421-2.695263-4.9310526m7.441579 0c0-3.5597369-1.113158-5.731579-4.746316-5.731579-3.616579 0-4.743947 2.1718421-4.743947 5.731579 0 3.5597368 1.127368 5.7339473 4.743947 5.7339473 3.633158 0 4.746316-2.1742105 4.746316-5.7339473"/><path d="m212.387684 29.8804737c1.217369 0 1.477895.2510526 1.477895 1.5560526v7.0010526h-.035526l-5.437895-8.9739473h-3.408158v.4168421c1.217368 0 1.477895.2510526 1.477895 1.5560526v7.1857895c0 1.3026316-.260527 1.5560526-1.477895 1.5560526v.4168421h4.05v-.4168421c-1.233947 0-1.477895-.253421-1.477895-1.5560526v-7.47h.035527l5.717368 9.4428947h1.650789v-9.1586842c0-1.305.227369-1.5560526 1.477895-1.5560526v-.4168421h-4.05z"/><path d="m127.989474 48.7953947 1.731315 4.7107895h-3.51zm-1.608158 8.2373685c-.826579 0-1.17-.1421053-1.17-.6228948 0-.2060526.063947-.4073684.142105-.5968421l.592105-1.5892105h4.040527l.622894 1.6839474c.078158.1871052.125527.3907894.125527.5778947 0 .4831579-.563685.5471053-1.172369.5471053v.388421h4.445527v-.388421c-1.091843 0-1.449474-.2842106-1.887632-1.4376316l-3.180789-8.5618421h-1.278948l-3.133421 8.3581579c-.483158 1.2955263-.873947 1.6413158-1.94921 1.6413158v.388421h3.803684z"/><path d="m140.040947 52.2300789c-1.167631-.9047368-3.820263-1.6247368-3.820263-3.1523684 0-.81.703421-1.4494737 1.96579-1.4494737 1.653158 0 2.058158 1.1060527 2.183684 1.9492106h.452368l-.094737-2.4205263c-.466578-.0734211-1.496842-.2771053-2.541315-.2771053-2.278421 0-3.571579.9639474-3.571579 2.6502631 0 1.2481579.765 1.996579 1.700526 2.6052632 1.435263.9189474 3.258947 1.4802632 3.258947 3.0078947 0 .9521053-.762631 1.6863158-2.122105 1.6863158-2.041579 0-2.39921-1.4518421-2.588684-2.2452631h-.45l.092368 2.5744737c.530527.1373684 1.544211.4192105 2.77579.4192105 2.370789 0 4.068947-.8123684 4.068947-3.0102632 0-1.0610526-.544737-1.7478947-1.309737-2.3376316"/><path d="m148.090026 52.2300789c-1.17-.9047368-3.822631-1.6247368-3.822631-3.1523684 0-.81.703421-1.4494737 1.965789-1.4494737 1.653158 0 2.058158 1.1060527 2.183684 1.9492106h.452369l-.094737-2.4205263c-.466579-.0734211-1.496842-.2771053-2.541316-.2771053-2.276052 0-3.56921.9639474-3.56921 2.6502631 0 1.2481579.762631 1.996579 1.698158 2.6052632 1.435263.9189474 3.258947 1.4802632 3.258947 3.0078947 0 .9521053-.762632 1.6863158-2.119737 1.6863158-2.043947 0-2.401579-1.4518421-2.591053-2.2452631h-.45l.092369 2.5744737c.530526.1373684 1.54421.4192105 2.775789.4192105 2.37079 0 4.071316-.8123684 4.071316-3.0102632 0-1.0610526-.547105-1.7478947-1.309737-2.3376316"/><path d="m155.091079 56.8281316c-2.088947 0-2.41579-2.1528948-2.41579-4.5971053 0-2.4371052.326843-4.6042105 2.41579-4.6042105 2.074737 0 2.418158 2.1671053 2.418158 4.6042105 0 2.4442105-.343421 4.5971053-2.418158 4.5971053m0-9.9497369c-3.242368 0-4.256053 2.0273685-4.256053 5.3526316 0 3.3205263 1.013685 5.3455263 4.256053 5.3455263 3.261316 0 4.258421-2.025 4.258421-5.3455263 0-3.3252631-.997105-5.3526316-4.258421-5.3526316"/><path d="m162.623132 52.0242632c0-1.9468421.37421-4.3957895 2.666842-4.3957895 1.683947 0 2.543684 1.5276316 2.605263 2.3210526h.452368l-.092368-2.6028947c-.717632-.2344737-1.731316-.4689474-3.119211-.4689474-3.47921 0-4.350789 2.311579-4.350789 5.146579 0 3.51 1.215 5.5563157 4.597105 5.5563157 1.608158 0 2.467895-.3623684 2.996053-.5944736v-1.0776316c-.483158.3268421-1.248158.7981579-2.728421.7981579-2.169474 0-3.026842-2.2168421-3.026842-4.6823684"/><path d="m177.298579 53.5068947 1.778684-4.7107894 1.731316 4.7107894zm5.911579 2.0889474-3.183158-8.5618421h-1.276579l-3.135789 8.3581579c-.476053 1.2742105-.869211 1.62-1.901843 1.6342105-1.027894-.0118421-1.264736-.2581579-1.264736-1.4447368v-6.7073684c0-1.215.234473-1.4471053 1.326315-1.4471053v-.3931579h-4.367368v.3931579c1.108421 0 1.328684.2321053 1.328684 1.4471053v6.7073684c0 1.215-.220263 1.4494737-1.328684 1.4494737v.388421h4.258421.108947 3.694737v-.388421c-.82421 0-1.17-.1397369-1.17-.6205264 0-.2060526.066316-.4073684.142106-.5968421l.592105-1.5892105h4.040526l.622895 1.6839474c.078158.1871052.125526.3907895.125526.5778947 0 .4831579-.561316.5447369-1.17.5447369v.388421h4.443158v-.388421c-1.091842 0-1.449474-.2818421-1.885263-1.4352632z"/><path d="m183.722684 47.0330526-.092368 2.4181579h.452368c.170527-1.1368421.499737-1.6981579 2.136316-1.6981579h.608684v7.8276316c0 1.215-.234473 1.4518421-1.326316 1.4518421v.3884211h4.367369v-.3884211c-1.091842 0-1.326316-.2368421-1.326316-1.4518421v-7.8276316h.592105c1.638948 0 1.996579.5423685 2.152895 1.6981579h.452368l-.078157-2.4181579z"/><path d="m192.316263 47.4262105c1.106053 0 1.326316.2344737 1.326316 1.4471053v6.7073684c0 1.215-.220263 1.4518421-1.326316 1.4518421v.3884211h4.367369v-.3884211c-1.094211 0-1.326316-.2368421-1.326316-1.4518421v-6.7073684c0-1.2126316.232105-1.4471053 1.326316-1.4471053v-.3931579h-4.367369z"/><path d="m201.377132 56.8281316c-2.088948 0-2.41579-2.1528948-2.41579-4.5971053 0-2.4371052.326842-4.6042105 2.41579-4.6042105 2.074736 0 2.418157 2.1671053 2.418157 4.6042105 0 2.4442105-.343421 4.5971053-2.418157 4.5971053m0-9.9497369c-3.242369 0-4.258421 2.0273685-4.258421 5.3526316 0 3.3205263 1.016052 5.3455263 4.258421 5.3455263 3.261315 0 4.256052-2.025 4.256052-5.3455263 0-3.3252631-.994737-5.3526316-4.256052-5.3526316"/><path d="m212.636368 47.4262105c1.091843 0 1.326316.2344737 1.326316 1.4471053v6.5344737h-.030789l-4.881316-8.3747369h-3.057632v.3931579c1.091842 0 1.326316.2344737 1.326316 1.4471053v6.7073684c0 1.215-.234474 1.4518421-1.326316 1.4518421v.3884211h3.635527v-.3884211c-1.108421 0-1.326316-.2368421-1.326316-1.4518421v-6.9702631h.030789l5.13 8.8105263h1.482632v-8.5476316c0-1.2126316.201316-1.4471053 1.323947-1.4471053v-.3931579h-3.633158z"/></g></svg>