<svg height="42" viewBox="0 0 42 42" width="42" xmlns="http://www.w3.org/2000/svg"><g fill="none" fill-rule="evenodd"><circle cx="21" cy="21" fill="#1da1f2" fill-rule="nonzero" r="21"/><path d="m30.7226543 17.5c.0286471.1153846.0429733.3028853.0429733.562502 0 1.5288527-.2864557 3.0504738-.8593776 4.5649002-.5729219 1.5144316-1.3821552 2.8990312-2.4277367 4.1538477-1.0455762 1.2548139-2.399079 2.2716306-4.0605452 3.0504807-1.6614662.7788502-3.4947786 1.1682694-5.5 1.1682694-2.5208454 0-4.8268121-.6778776-6.9179681-2.033654.3151057.0288464.6731749.0432691 1.0742186.0432691 2.0911566 0 3.9674397-.6490317 5.628909-1.9471152-1.0026133 0-1.8834624-.29567-2.6425808-.8870189-.7591184-.5913474-1.2818997-1.3341289-1.5683596-2.2283636.2864599.0288422.5585926.0432685.8164064.0432685.4010438 0 .8020813-.0432685 1.203125-.129811-.6875031-.144232-1.3033826-.4326857-1.8476558-.8653819-.5442738-.4326963-.9739568-.9591297-1.2890628-1.5793266s-.4726564-1.2908624-.4726564-2.0120229v-.0865371c.6302115.3750013 1.3033822.5769231 2.0195314.6057705-1.3463607-.9230769-2.0195314-2.1922971-2.0195314-3.8076923 0-.8076976.2148415-1.5721108.6445314-2.2932712 1.117193 1.4134681 2.4850179 2.5384615 4.103516 3.3750013 1.618498.8365451 3.3443928 1.2980783 5.1777366 1.3846154-.0572943-.3461538-.0859414-.6923077-.0859414-1.0384615 0-1.2403886.4368467-2.3076871 1.3105505-3.2019218.8736985-.8942347 1.9264247-1.3413468 3.1581995-1.3413468 1.3177162 0 2.4205709.4759543 3.3085957 1.427884 1.0312552-.2019218 1.9908795-.5624967 2.8789043-1.0817302-.34375 1.0673143-1.0025976 1.9038436-1.9765638 2.5096141.8593828-.1153846 1.71875-.3605749 2.5781276-.7355763-.630211.9230822-1.389321 1.7163429-2.2773457 2.3798084z" fill="#fff"/></g></svg>