<svg height="16" viewBox="0 0 34 16" width="34" xmlns="http://www.w3.org/2000/svg"><path d="m25.1527778.75387891c2.099537-.98233888 5.6504629-1.37605717 6.9112654 1.17802391 0 0 .3333333.80543961.3773148 1.57330768l.0021986.04671071c.0055286.13948757.0096823.41932658.0127333.79870675l.0073069 2.47466368-.0129795 6.34441136c.2276234.4915608.8402778.5901861 1.3240741.3937183.113007-.0373926.1354698-.0537554.1601364-.0607519l.0142305-.0029576.019789-.0015954.0311527-.0004453c-.6442901.7850884-.2685185 3.2781158-2.3595679 2.2629018-.8402778-.3287509-1.6442901-1.21403-1.8387346-2.0993091-.7106481.5244359-.2885802 1.9646778-1.3881173 2.129836-1.3233024.2301256-2.6797839 0-3.7129629-.7209037-1.4537037-1.2445568-1.5833333-3.2428924-1.2592593-5.0447602.4106019-3.082916 3.7075911-3.52044613 5.8451492-4.70955451l.1293879-.07377051c.7415123-.52521864.5802469-1.5404326.3233024-2.19402062-.3233024-.71698997-1.2314815-1.15297623-2.103395-1.05513371-1.2600309.06731565-2.4830247.33266456-3.2584877 1.44806926.0316358-.82031167.5162037-1.80343328.775463-2.6871469zm4.6489969 5.9863878c-.9675926.71255738-2.0979938 1.06536206-3.0023148 1.93849575-1.0995371.84070963-1.1296297 2.29361644-.9367284 3.42537064.2584876.6793613.8387345 1.0653621 1.4537037 1.3247546.8719136.1945443 1.808642.033196 2.4853395-.484817zm-14.5710648-6.04352783c1.7044753-.91580597 4.2222222-.94007091 5.6921296.52052219 1.8233025 1.97798434 2.2407407 4.60486025 1.9837963 7.3319269h-8.2839506l-.0287923.07050789c-.2856217.73520308-.2036778 1.67326594.1244713 2.59002584.3834877.8101361.8950617 1.7353349 1.9189815 2.1736694 1.4382716.6167992 3.779321.6340195 4.8279321-.4860816l.6080247-.780392-.0272814.1354394c-.1756978.824779-.5610471 1.8614955-.8037371 2.752089-1.9182099 1.1044464-4.797068 1.3298755-6.6195988-.0641847-2.5601852-2.1094847-3.2175926-5.30228169-2.6875-8.66180238.5123457-2.11105016 1.2152778-4.34812148 3.2955247-5.58171994zm2.6207561.34753662c-2.0462962 1.47297885-3.0021719 3.35914268-3.2575731 5.69599121 1.9830247.89397773 4.3206823.89397773 6.3289466 0-.3510802-2.27277241-1.0551697-4.22301236-3.0713735-5.69599121zm-8.3977623 0c-.97376543-.81483249-1.69830247-.972946-3.05324074-.83909743-1.23070987.17611653-2.12962963 1.03321698-2.67129629 2.09852632-.07098766-.52208768-.07098766-1.07783318-.06404321-1.64610252-1.06800412.69329903-2.22002744 1.32864051-3.22269822 2.04030414l-.21248697.15371648h.28703704c.42438272.06418469.69907407.81404974.70833333 1.26490806 0 3.33369027-.03626543 6.84114885-.04320987 10.00185355-.03516648.512339-.57386435 1.1542175-1.12993143 1.5159623l-.05216734.0330804 4.65200617.0250477c-.36962214-.218598-.87492206-1.0134997-.94319929-1.4847087l-.00510318-.0432001-.00308642-7.98238391.01785125-.2050787c.0944736-1.05926945.23324771-2.10905695.86023517-2.92744735.54089507-.87197252 1.62577161-.89545472 2.45370371-.73342751.66390175.25189013 1.16005682.80934183 1.25517984 1.60042442l.00716584.06837756-.03703704 10.10439249c-.18377976.6219429-.53042623 1.1267055-1.17900134 1.5556959l-.07331348.0473559h4.91820987c-.5869048-.1254621-1.0405593-.9615065-1.2414234-1.4827589l-.0170642-.0451499v-9.6903229c-.0084877-1.60774825-.3518519-2.52825066-1.2114198-3.4299673z" fill="#fff" fill-rule="evenodd"/></svg>