<svg width="150" height="150" viewBox="0 0 150 150" fill="none" xmlns="http://www.w3.org/2000/svg">
<rect width="150" height="150" rx="5" fill="black"/>
<path fill-rule="evenodd" clip-rule="evenodd" d="M49.5021 124.242C63.7344 124.242 71.7128 119.589 71.7128 107.47V88.2199C71.7128 71.6253 61.048 69.8905 60.0216 69.8905C65.2192 69.8905 71.0386 65.7095 70.8513 53.6779V46.0019C70.8513 30.5887 64.4835 25.7588 47.7611 25.7588H19.7686V124.242H49.5021Z" fill="white"/>
<path fill-rule="evenodd" clip-rule="evenodd" d="M50.814 59.0234C50.814 61.4823 48.5763 62.944 45.0649 62.944H37.4697L37.4742 41.4463H45.1202C49.6047 41.4463 50.8185 43.1804 50.8185 45.7331L50.814 59.0234Z" fill="black"/>
<path fill-rule="evenodd" clip-rule="evenodd" d="M37.8952 78.3408H45.2098C47.2241 78.3408 53.7213 78.3393 53.7213 85.7798C53.7213 85.7798 53.7213 93.8899 53.7213 101.759C53.7213 108.213 45.8 108.263 44.9602 108.263C39.2102 108.263 37.7607 108.263 37.7607 108.263L37.8952 78.3408Z" fill="black"/>
<path fill-rule="evenodd" clip-rule="evenodd" d="M130.457 58.8166V46.0019C130.457 30.5887 125.17 25.7588 111.34 25.7588H78.9678V124.242H96.9406V84.886L104.21 84.8905C109.165 84.8905 111.386 88.1691 111.386 92.5232V124.242H132.653C132.653 124.242 130.452 122.013 130.452 117.073C130.452 112.131 130.452 91.8699 130.452 91.8699C130.452 76.0212 120.098 75.9884 119.081 75.9884C124.405 75.9884 130.457 71.9192 130.457 58.8166Z" fill="white"/>
<path fill-rule="evenodd" clip-rule="evenodd" d="M111.467 63.4131C111.467 67.7203 108.978 69.6257 105.971 69.6257H96.96L96.9645 41.7368H105.843C109.852 41.7368 111.47 44.0869 111.47 47.657L111.467 63.4131Z" fill="black"/>
</svg>
